<svg xmlns="http://www.w3.org/2000/svg" xmlns:xlink="http://www.w3.org/1999/xlink" width="375" viewBox="0 0 375 75" height="75" version="1.0"><defs><g id="b"><path d="M 9.59375 -27.375 L 9.59375 -7.984375 C 9.59375 -6.179688 9.960938 -4.878906 10.703125 -4.078125 C 11.453125 -3.285156 12.613281 -2.890625 14.1875 -2.890625 C 15.695312 -2.890625 17.125 -3.316406 18.46875 -4.171875 C 19.8125 -5.023438 20.851562 -6.039062 21.59375 -7.21875 L 21.59375 -27.375 L 25.96875 -27.375 L 25.96875 0 L 22.25 0 L 21.890625 -3.6875 C 20.816406 -2.300781 19.488281 -1.238281 17.90625 -0.5 C 16.332031 0.226562 14.738281 0.59375 13.125 0.59375 C 10.476562 0.59375 8.5 -0.109375 7.1875 -1.515625 C 5.875 -2.929688 5.21875 -4.910156 5.21875 -7.453125 L 5.21875 -27.375 Z M 9.59375 -27.375"/></g><g id="c"><path d="M 5.21875 0 L 5.21875 -27.375 L 8.9375 -27.375 L 9.28125 -23.578125 C 10.382812 -24.984375 11.769531 -26.0625 13.4375 -26.8125 C 15.113281 -27.5625 16.742188 -27.9375 18.328125 -27.9375 C 21.015625 -27.9375 22.96875 -27.222656 24.1875 -25.796875 C 25.40625 -24.378906 26.015625 -22.410156 26.015625 -19.890625 L 26.015625 0 L 21.65625 0 L 21.65625 -16.65625 C 21.65625 -18.53125 21.550781 -20.039062 21.34375 -21.1875 C 21.132812 -22.34375 20.695312 -23.1875 20.03125 -23.71875 C 19.375 -24.25 18.351562 -24.515625 16.96875 -24.515625 C 15.894531 -24.515625 14.882812 -24.28125 13.9375 -23.8125 C 13 -23.34375 12.160156 -22.753906 11.421875 -22.046875 C 10.679688 -21.347656 10.070312 -20.644531 9.59375 -19.9375 L 9.59375 0 Z M 5.21875 0"/></g><g id="d"><path d="M 21.59375 -38.9375 L 25.96875 -38.390625 L 25.96875 0 L 22.140625 0 L 21.734375 -3.609375 C 20.710938 -2.148438 19.535156 -1.082031 18.203125 -0.40625 C 16.878906 0.257812 15.460938 0.59375 13.953125 0.59375 C 11.578125 0.59375 9.617188 0 8.078125 -1.1875 C 6.535156 -2.382812 5.390625 -4.050781 4.640625 -6.1875 C 3.898438 -8.332031 3.53125 -10.816406 3.53125 -13.640625 C 3.53125 -16.378906 3.953125 -18.828125 4.796875 -20.984375 C 5.648438 -23.140625 6.878906 -24.835938 8.484375 -26.078125 C 10.085938 -27.316406 12.015625 -27.9375 14.265625 -27.9375 C 15.847656 -27.9375 17.234375 -27.660156 18.421875 -27.109375 C 19.617188 -26.566406 20.675781 -25.769531 21.59375 -24.71875 Z M 15.40625 -24.4375 C 13.125 -24.4375 11.367188 -23.539062 10.140625 -21.75 C 8.910156 -19.96875 8.296875 -17.265625 8.296875 -13.640625 C 8.296875 -11.285156 8.546875 -9.3125 9.046875 -7.71875 C 9.546875 -6.125 10.285156 -4.925781 11.265625 -4.125 C 12.242188 -3.332031 13.445312 -2.9375 14.875 -2.9375 C 16.425781 -2.9375 17.75 -3.378906 18.84375 -4.265625 C 19.945312 -5.148438 20.863281 -6.144531 21.59375 -7.25 L 21.59375 -20.921875 C 20.851562 -22.035156 19.953125 -22.898438 18.890625 -23.515625 C 17.835938 -24.128906 16.675781 -24.4375 15.40625 -24.4375 Z M 15.40625 -24.4375"/></g><g id="e"><path d="M 8.65625 -12.140625 C 8.738281 -10.023438 9.144531 -8.296875 9.875 -6.953125 C 10.601562 -5.609375 11.566406 -4.617188 12.765625 -3.984375 C 13.960938 -3.359375 15.257812 -3.046875 16.65625 -3.046875 C 18.0625 -3.046875 19.332031 -3.25 20.46875 -3.65625 C 21.601562 -4.070312 22.769531 -4.691406 23.96875 -5.515625 L 26.015625 -2.625 C 24.734375 -1.625 23.273438 -0.835938 21.640625 -0.265625 C 20.003906 0.304688 18.328125 0.59375 16.609375 0.59375 C 13.953125 0.59375 11.6875 0 9.8125 -1.1875 C 7.945312 -2.382812 6.523438 -4.050781 5.546875 -6.1875 C 4.566406 -8.332031 4.078125 -10.816406 4.078125 -13.640625 C 4.078125 -16.410156 4.570312 -18.867188 5.5625 -21.015625 C 6.550781 -23.171875 7.9375 -24.863281 9.71875 -26.09375 C 11.5 -27.320312 13.601562 -27.9375 16.03125 -27.9375 C 18.34375 -27.9375 20.328125 -27.394531 21.984375 -26.3125 C 23.648438 -25.226562 24.925781 -23.6875 25.8125 -21.6875 C 26.707031 -19.6875 27.15625 -17.300781 27.15625 -14.53125 C 27.15625 -14.0625 27.144531 -13.625 27.125 -13.21875 C 27.113281 -12.8125 27.09375 -12.453125 27.0625 -12.140625 Z M 16.09375 -24.359375 C 14.0625 -24.359375 12.363281 -23.640625 11 -22.203125 C 9.644531 -20.765625 8.875 -18.535156 8.6875 -15.515625 L 22.953125 -15.515625 C 22.898438 -18.441406 22.257812 -20.644531 21.03125 -22.125 C 19.800781 -23.613281 18.15625 -24.359375 16.09375 -24.359375 Z M 16.09375 -24.359375"/></g><g id="f"><path d="M 21.390625 -38.9375 C 22.859375 -38.9375 24.191406 -38.804688 25.390625 -38.546875 C 26.585938 -38.285156 27.722656 -37.921875 28.796875 -37.453125 L 27.390625 -34.203125 C 26.503906 -34.585938 25.566406 -34.875 24.578125 -35.0625 C 23.597656 -35.25 22.578125 -35.34375 21.515625 -35.34375 C 19.609375 -35.34375 18.175781 -34.96875 17.21875 -34.21875 C 16.257812 -33.476562 15.78125 -32.335938 15.78125 -30.796875 L 15.78125 -25.234375 L 25.0625 -25.234375 L 24.59375 -21.8125 L 15.78125 -21.8125 L 15.78125 0 L 11.40625 0 L 11.40625 -21.8125 L 4.890625 -21.8125 L 4.890625 -25.234375 L 11.40625 -25.234375 L 11.40625 -30.703125 C 11.40625 -32.398438 11.84375 -33.863281 12.71875 -35.09375 C 13.59375 -36.320312 14.785156 -37.269531 16.296875 -37.9375 C 17.804688 -38.601562 19.503906 -38.9375 21.390625 -38.9375 Z M 21.390625 -38.9375"/></g><g id="g"><path d="M 19.078125 -27.375 L 19.078125 -3.453125 L 26.796875 -3.453125 L 26.796875 0 L 6.265625 0 L 6.265625 -3.453125 L 14.71875 -3.453125 L 14.71875 -23.90625 L 6.53125 -23.90625 L 6.53125 -27.375 Z M 15.59375 -40.1875 C 16.5625 -40.1875 17.335938 -39.890625 17.921875 -39.296875 C 18.503906 -38.710938 18.796875 -37.992188 18.796875 -37.140625 C 18.796875 -36.253906 18.503906 -35.515625 17.921875 -34.921875 C 17.335938 -34.328125 16.5625 -34.03125 15.59375 -34.03125 C 14.675781 -34.03125 13.921875 -34.328125 13.328125 -34.921875 C 12.742188 -35.515625 12.453125 -36.253906 12.453125 -37.140625 C 12.453125 -37.992188 12.742188 -38.710938 13.328125 -39.296875 C 13.921875 -39.890625 14.675781 -40.1875 15.59375 -40.1875 Z M 15.59375 -40.1875"/></g><g id="h"><path d="M 4.875 0 L 4.875 -19.5 L 0 -19.5 L 0 -21.9375 L 12.1875 -21.9375 L 12.1875 -19.5 L 7.3125 -19.5 L 7.3125 0 Z M 4.875 0"/></g><g id="i"><path d="M 0 0 L 0 -21.9375 L 12.1875 -21.9375 L 12.1875 -19.5 L 2.4375 -19.5 L 2.4375 -12.1875 L 9.75 -12.1875 L 9.75 -9.75 L 2.4375 -9.75 L 2.4375 -2.4375 L 12.1875 -2.4375 L 12.1875 0 Z M 0 0"/></g><g id="j"><path d="M 9.75 -9.75 L 9.75 -11.375 L 6.09375 -18.6875 L 2.4375 -11.375 L 2.4375 -9.75 Z M 0 0 L 0 -11.375 L 5.28125 -21.9375 L 6.90625 -21.9375 L 12.1875 -11.375 L 12.1875 0 L 9.75 0 L 9.75 -7.3125 L 2.4375 -7.3125 L 2.4375 0 Z M 0 0"/></g><g id="k"><path d="M 0 0 L 0 -21.9375 L 2.03125 -21.9375 L 6.09375 -13.8125 L 10.15625 -21.9375 L 12.1875 -21.9375 L 12.1875 0 L 9.75 0 L 9.75 -16.25 L 6.90625 -10.5625 L 5.28125 -10.5625 L 2.4375 -16.25 L 2.4375 0 Z M 0 0"/></g><clipPath id="a"><path d="M 0 0 L 68.25 0 L 68.25 69 L 0 69 Z M 0 0"/></clipPath></defs><g clip-path="url(#a)"><path fill="#F7E018" d="M 0.0117188 34.160156 C 0.0117188 53.023438 15.289062 68.3125 34.136719 68.3125 C 52.980469 68.3125 68.257812 53.023438 68.257812 34.160156 C 68.257812 15.300781 52.980469 0.0117188 34.136719 0.0117188 C 15.289062 0.0117188 0.0117188 15.300781 0.0117188 34.160156"/></g><path d="M 46.382812 59.984375 L 22.542969 59.984375 L 22.542969 25.25 L 46.382812 25.25 L 46.382812 59.984375"/><path d="M 54.042969 68.40625 C 52.355469 69.667969 50.542969 70.773438 48.628906 71.695312 C 48.339844 71.839844 48.046875 71.972656 47.753906 72.105469 C 43.59375 73.972656 38.988281 75.007812 34.136719 75.007812 C 29.285156 75.007812 24.679688 73.972656 20.523438 72.105469 C 20.222656 71.972656 19.929688 71.839844 19.640625 71.695312 C 17.726562 70.769531 15.914062 69.667969 14.230469 68.40625 C 14.523438 61.804688 18.03125 56.039062 23.21875 52.632812 C 26.355469 50.574219 30.105469 49.378906 34.136719 49.378906 C 34.75 49.378906 35.359375 49.40625 35.957031 49.460938 C 39.296875 49.761719 42.394531 50.886719 45.050781 52.632812 C 47.441406 54.199219 49.472656 56.269531 50.996094 58.6875 C 52.789062 61.523438 53.882812 64.84375 54.042969 68.40625"/><path fill="#FBD5C0" d="M 45.050781 52.632812 C 44.746094 54.933594 43.734375 57.015625 42.230469 58.644531 C 40.21875 60.824219 37.339844 62.191406 34.136719 62.191406 C 29.007812 62.191406 24.695312 58.679688 23.472656 53.925781 C 23.363281 53.503906 23.277344 53.070312 23.21875 52.632812 C 26.355469 50.574219 30.105469 49.378906 34.136719 49.378906 C 34.75 49.378906 35.359375 49.402344 35.957031 49.460938 C 36.0625 49.46875 36.167969 49.480469 36.269531 49.492188 C 36.335938 49.496094 36.398438 49.503906 36.460938 49.511719 C 36.535156 49.519531 36.605469 49.53125 36.675781 49.539062 C 36.71875 49.542969 36.765625 49.550781 36.808594 49.554688 C 36.871094 49.5625 36.9375 49.574219 37 49.582031 C 37.050781 49.589844 37.101562 49.597656 37.152344 49.601562 C 37.195312 49.609375 37.242188 49.617188 37.285156 49.625 C 37.359375 49.636719 37.429688 49.648438 37.503906 49.660156 C 37.820312 49.714844 38.136719 49.773438 38.445312 49.84375 L 38.65625 49.890625 C 38.695312 49.902344 38.734375 49.910156 38.773438 49.921875 C 38.847656 49.9375 38.925781 49.957031 38.996094 49.976562 C 39.007812 49.976562 39.019531 49.980469 39.027344 49.980469 C 39.121094 50.003906 39.214844 50.03125 39.308594 50.054688 C 39.40625 50.078125 39.503906 50.109375 39.601562 50.136719 C 39.710938 50.167969 39.820312 50.199219 39.929688 50.230469 C 40.015625 50.257812 40.101562 50.285156 40.183594 50.3125 C 40.238281 50.328125 40.296875 50.347656 40.347656 50.363281 C 40.4375 50.394531 40.527344 50.421875 40.613281 50.453125 C 40.722656 50.492188 40.828125 50.527344 40.933594 50.566406 C 40.941406 50.570312 40.949219 50.574219 40.957031 50.574219 C 41.066406 50.613281 41.175781 50.65625 41.285156 50.699219 C 41.363281 50.730469 41.445312 50.761719 41.53125 50.796875 C 41.746094 50.878906 41.957031 50.96875 42.164062 51.058594 L 42.4375 51.183594 C 42.519531 51.222656 42.601562 51.261719 42.683594 51.300781 C 42.761719 51.335938 42.835938 51.371094 42.910156 51.410156 C 42.980469 51.441406 43.046875 51.476562 43.113281 51.511719 C 43.15625 51.53125 43.203125 51.554688 43.246094 51.578125 C 43.425781 51.667969 43.601562 51.765625 43.777344 51.859375 C 43.839844 51.894531 43.902344 51.933594 43.964844 51.96875 C 44.007812 51.992188 44.046875 52.011719 44.085938 52.035156 L 44.230469 52.121094 L 44.382812 52.214844 L 44.480469 52.273438 C 44.574219 52.324219 44.664062 52.382812 44.757812 52.441406 C 44.855469 52.503906 44.953125 52.566406 45.050781 52.632812"/><path fill="#FBD5C0" d="M 37.972656 44.910156 L 37.972656 52.464844 C 37.972656 54.375 36.410156 55.941406 34.503906 55.941406 L 33.769531 55.941406 C 31.859375 55.941406 30.300781 54.375 30.300781 52.464844 L 30.300781 44.910156 C 30.300781 42.996094 31.859375 41.433594 33.769531 41.433594 L 34.503906 41.433594 C 36.410156 41.433594 37.972656 42.996094 37.972656 44.910156"/><path fill="#FBD5C0" d="M 37.972656 44.910156 L 37.972656 48.90625 C 36.832031 49.539062 35.621094 49.910156 34.394531 49.910156 C 32.945312 49.910156 31.5625 49.503906 30.300781 48.804688 L 30.300781 44.910156 C 30.300781 42.996094 31.859375 41.433594 33.769531 41.433594 L 34.503906 41.433594 C 36.410156 41.433594 37.972656 42.996094 37.972656 44.910156"/><path fill="#FBD5C0" d="M 45.964844 40.226562 C 45.964844 40.226562 48.238281 39.449219 49.691406 36.914062 C 51.265625 34.160156 50.277344 32.445312 49.964844 32.074219 C 49.109375 31.058594 47.792969 31.710938 47.574219 32.074219 C 47.355469 32.4375 44.210938 38.15625 45.964844 40.226562"/><path fill="#FBD5C0" d="M 48.191406 32.976562 C 48.191406 32.976562 49.636719 33.160156 49.128906 35.191406 C 48.621094 37.222656 47.289062 38.023438 45.476562 39.0625 C 43.667969 40.097656 46.382812 33.390625 48.191406 32.976562"/><path fill="#FBD5C0" d="M 22.898438 40.226562 C 22.898438 40.226562 20.625 39.449219 19.171875 36.914062 C 17.59375 34.160156 18.582031 32.445312 18.898438 32.074219 C 19.75 31.058594 21.070312 31.710938 21.285156 32.074219 C 21.503906 32.4375 24.652344 38.15625 22.898438 40.226562"/><path fill="#FBD5C0" d="M 20.667969 32.976562 C 20.667969 32.976562 19.226562 33.160156 19.734375 35.191406 C 20.238281 37.222656 21.574219 38.023438 23.382812 39.0625 C 25.195312 40.097656 22.480469 33.390625 20.667969 32.976562"/><path fill="#FBD5C0" d="M 48.191406 31.636719 C 48.191406 23.300781 42.046875 16.542969 34.460938 16.542969 C 26.878906 16.542969 20.726562 23.300781 20.726562 31.636719 C 20.726562 39.972656 26.878906 48.6875 34.460938 48.6875 C 41.589844 48.6875 48.191406 39.902344 48.191406 31.636719"/><path d="M 28.140625 21.820312 C 28.140625 21.820312 32.628906 35.300781 49.234375 42.9375 C 49.234375 42.9375 49.695312 30.589844 49.121094 25.25 C 48.472656 19.234375 42.820312 12.289062 34.136719 14.101562 C 34.136719 14.101562 26.109375 16.527344 28.140625 21.820312"/><path d="M 36.132812 16.542969 C 36.132812 16.542969 36.492188 14.96875 35.191406 13.738281 C 33.886719 12.503906 16.625 15.035156 20.726562 31.636719 C 20.726562 31.636719 24.753906 21.707031 35.40625 20.839844 L 36.132812 16.542969"/><g><use x="75.818" y="67.3" xmlns:xlink="http://www.w3.org/1999/xlink" xlink:href="#b" xlink:type="simple" xlink:actuate="onLoad" xlink:show="embed"/></g><g><use x="107.009" y="67.3" xmlns:xlink="http://www.w3.org/1999/xlink" xlink:href="#c" xlink:type="simple" xlink:actuate="onLoad" xlink:show="embed"/></g><g><use x="138.199" y="67.3" xmlns:xlink="http://www.w3.org/1999/xlink" xlink:href="#d" xlink:type="simple" xlink:actuate="onLoad" xlink:show="embed"/></g><g><use x="169.389" y="67.3" xmlns:xlink="http://www.w3.org/1999/xlink" xlink:href="#e" xlink:type="simple" xlink:actuate="onLoad" xlink:show="embed"/></g><g><use x="200.58" y="67.3" xmlns:xlink="http://www.w3.org/1999/xlink" xlink:href="#f" xlink:type="simple" xlink:actuate="onLoad" xlink:show="embed"/></g><g><use x="231.77" y="67.3" xmlns:xlink="http://www.w3.org/1999/xlink" xlink:href="#g" xlink:type="simple" xlink:actuate="onLoad" xlink:show="embed"/></g><g><use x="262.961" y="67.3" xmlns:xlink="http://www.w3.org/1999/xlink" xlink:href="#c" xlink:type="simple" xlink:actuate="onLoad" xlink:show="embed"/></g><g><use x="294.151" y="67.3" xmlns:xlink="http://www.w3.org/1999/xlink" xlink:href="#e" xlink:type="simple" xlink:actuate="onLoad" xlink:show="embed"/></g><g><use x="325.342" y="67.3" xmlns:xlink="http://www.w3.org/1999/xlink" xlink:href="#d" xlink:type="simple" xlink:actuate="onLoad" xlink:show="embed"/></g><g><use x="80.318" y="31.7" xmlns:xlink="http://www.w3.org/1999/xlink" xlink:href="#h" xlink:type="simple" xlink:actuate="onLoad" xlink:show="embed"/></g><g><use x="96.563" y="31.7" xmlns:xlink="http://www.w3.org/1999/xlink" xlink:href="#i" xlink:type="simple" xlink:actuate="onLoad" xlink:show="embed"/></g><g><use x="112.808" y="31.7" xmlns:xlink="http://www.w3.org/1999/xlink" xlink:href="#j" xlink:type="simple" xlink:actuate="onLoad" xlink:show="embed"/></g><g><use x="129.054" y="31.7" xmlns:xlink="http://www.w3.org/1999/xlink" xlink:href="#k" xlink:type="simple" xlink:actuate="onLoad" xlink:show="embed"/></g></svg>